# Blender v2.91.0 OBJ File: ''
# www.blender.org
mtllib asym.mtl
o Cube
v -0.500000 0.302235 -0.500000
v -0.500000 0.000000 -0.500000
v -0.500000 0.302235 0.500000
v -0.500000 0.000000 0.500000
v 0.000000 0.000000 -0.500000
v 0.000000 0.302235 0.500000
v 0.000000 0.000000 0.500000
v 0.000000 0.302235 -0.500000
v 0.500000 0.173037 -0.375000
v 0.500000 0.173037 -0.125000
v 0.500000 0.000000 -0.125000
v 0.500000 0.000000 -0.375000
v 0.000000 0.000000 -0.375000
v 0.000000 0.000000 -0.125000
v 0.000000 0.173037 -0.375000
v 0.000000 0.173037 -0.125000
vt 0.375000 0.875000
vt 0.625000 0.875000
vt 0.625000 1.000000
vt 0.375000 1.000000
vt 0.375000 0.250000
vt 0.625000 0.250000
vt 0.625000 0.375000
vt 0.375000 0.375000
vt 0.250000 0.666667
vt 0.375000 0.666667
vt 0.625000 0.666667
vt 0.750000 0.666667
vt 0.125000 0.500000
vt 0.250000 0.500000
vt 0.250000 0.583333
vt 0.250000 0.750000
vt 0.125000 0.750000
vt 0.625000 0.583333
vt 0.750000 0.583333
vt 0.375000 0.583333
vt 0.375000 0.000000
vt 0.625000 0.000000
vn 0.0000 0.0000 1.0000
vn 0.0000 0.0000 -1.0000
vn 0.0000 -1.0000 0.0000
vn 0.0000 1.0000 0.0000
vn 1.0000 0.0000 0.0000
vn -1.0000 0.0000 0.0000
usemtl Material
s off
f 7/1/1 6/2/1 3/3/1 4/4/1
f 2/5/2 1/6/2 8/7/2 5/8/2
f 14/9/1 11/10/1 10/11/1 16/12/1
f 2/13/3 5/14/3 13/15/3 14/9/3 7/16/3 4/17/3
f 16/12/4 10/11/4 9/18/4 15/19/4
f 12/20/5 9/18/5 10/11/5 11/10/5
f 13/15/2 15/19/2 9/18/2 12/20/2
f 13/15/3 12/20/3 11/10/3 14/9/3
f 4/21/6 3/22/6 1/6/6 2/5/6
f 8/7/5 6/2/5 7/1/5 14/9/5 16/12/5 15/19/5 13/15/5 5/14/5
f 6/2/4 8/7/4 1/6/4 3/22/4
